<svg xmlns="http://www.w3.org/2000/svg" xmlns:xlink="http://www.w3.org/1999/xlink" width="100" height="100" viewBox="0 0 100 100">
  <defs>
    <clipPath id="clip-Bitcoin">
      <rect width="100" height="100"/>
    </clipPath>
  </defs>
  <g id="Bitcoin" clip-path="url(#clip-Bitcoin)">
    <g id="Bitcoin_logo" transform="translate(-282.178 -310.087)">
      <path id="Path_9165" data-name="Path 9165" d="M373.478,370.388a42.564,42.564,0,1,1-31.005-51.605A42.567,42.567,0,0,1,373.478,370.388Z" transform="translate(0 0)" fill="#f7931a"/>
      <path id="Path_9166" data-name="Path 9166" d="M345.8,350.335c.848-5.666-3.466-8.711-9.365-10.743l1.913-7.675-4.672-1.164-1.863,7.473c-1.228-.306-2.49-.595-3.743-.881l1.876-7.522-4.669-1.164-1.915,7.672c-1.017-.232-2.014-.46-2.983-.7l.005-.024L313.947,334l-1.243,4.99s3.466.794,3.393.844a2.486,2.486,0,0,1,2.177,2.717l-2.18,8.743a3.864,3.864,0,0,1,.486.156c-.156-.039-.322-.081-.494-.122l-3.055,12.248a1.7,1.7,0,0,1-2.141,1.11c.047.068-3.4-.848-3.4-.848l-2.319,5.348,6.079,1.516c1.131.283,2.239.58,3.33.86l-1.933,7.763,4.666,1.164,1.915-7.68c1.275.346,2.512.665,3.723.966l-1.908,7.644,4.672,1.164,1.933-7.748c7.966,1.508,13.956.9,16.478-6.306,2.032-5.8-.1-9.148-4.292-11.33,3.052-.7,5.352-2.712,5.965-6.859ZM335.13,365.3c-1.444,5.8-11.211,2.665-14.378,1.879l2.565-10.284c3.167.79,13.322,2.355,11.813,8.405Zm1.445-15.051c-1.317,5.277-9.447,2.6-12.084,1.939l2.326-9.327C329.454,343.52,337.947,344.747,336.575,350.252Z" transform="translate(5.148 3.686)" fill="#fff"/>
    </g>
  </g>
</svg>
