<svg xmlns="http://www.w3.org/2000/svg" width="12.8" height="16" viewBox="0 0 12.8 16">
  <g id="Icon_ionic-ios-copy" data-name="Icon ionic-ios-copy" transform="translate(-4.5 -1.125)">
    <path id="Path_375" data-name="Path 375" d="M24.044,4.429h3a.2.2,0,0,0,.2-.2h0a.93.93,0,0,0-.333-.71l-2.57-2.14a1.247,1.247,0,0,0-.687-.247h0a.246.246,0,0,0-.247.247V3.8A.638.638,0,0,0,24.044,4.429Z" transform="translate(-9.944 -0.004)" fill="#afafaf"/>
    <path id="Path_376" data-name="Path 376" d="M15.558,3.792V1.125H11.192a1.07,1.07,0,0,0-1.067,1.067v11.2a1.07,1.07,0,0,0,1.067,1.067h8a1.07,1.07,0,0,0,1.067-1.067v-8.1h-3.2A1.5,1.5,0,0,1,15.558,3.792Z" transform="translate(-2.958)" fill="#afafaf"/>
    <path id="Path_377" data-name="Path 377" d="M6.233,16.692V5.625H5.567A1.07,1.07,0,0,0,4.5,6.692V18.425a1.07,1.07,0,0,0,1.067,1.067H14.1a1.07,1.07,0,0,0,1.067-1.067v-.667H7.3A1.07,1.07,0,0,1,6.233,16.692Z" transform="translate(0 -2.367)" fill="#afafaf"/>
  </g>
</svg>
