<svg xmlns="http://www.w3.org/2000/svg" width="29.612" height="33.842" viewBox="0 0 29.612 33.842">
  <path id="Icon_awesome-copy" data-name="Icon awesome-copy" d="M21.151,29.612v2.644a1.586,1.586,0,0,1-1.586,1.586H1.586A1.586,1.586,0,0,1,0,32.255V7.932A1.586,1.586,0,0,1,1.586,6.345H6.345V25.91a3.706,3.706,0,0,0,3.7,3.7Zm0-22.737V0h-11.1A1.586,1.586,0,0,0,8.46,1.586V25.91A1.586,1.586,0,0,0,10.047,27.5H28.025a1.586,1.586,0,0,0,1.586-1.586V8.46H22.737A1.591,1.591,0,0,1,21.151,6.874Zm8-2.051L24.788.465A1.586,1.586,0,0,0,23.667,0h-.4V6.345h6.345v-.4a1.586,1.586,0,0,0-.465-1.122Z" fill="#f0b80c"/>
</svg>
