<svg xmlns="http://www.w3.org/2000/svg" width="20.466" height="15.991" viewBox="0 0 20.466 15.991">
  <path id="Icon_awesome-exchange-alt" data-name="Icon awesome-exchange-alt" d="M0,8.414v-.64a.959.959,0,0,1,.959-.959H15.35V4.9a.96.96,0,0,1,1.638-.678l3.2,3.2a.959.959,0,0,1,0,1.357l-3.2,3.2a.96.96,0,0,1-1.638-.678V9.373H.959A.959.959,0,0,1,0,8.414ZM19.507,14.49H5.117V12.571a.96.96,0,0,0-1.638-.678l-3.2,3.2a.959.959,0,0,0,0,1.357l3.2,3.2a.96.96,0,0,0,1.638-.678V17.048h14.39a.959.959,0,0,0,.959-.959v-.64A.959.959,0,0,0,19.507,14.49Z" transform="translate(0 -3.936)" fill="#b1b2b4"/>
</svg>
