<svg xmlns="http://www.w3.org/2000/svg" width="21.174" height="14.899" viewBox="0 0 21.174 14.899">
  <g id="noun_hide_2040068" transform="translate(0)">
    <g id="Group_187" data-name="Group 187" transform="translate(0 0)">
      <g id="Group_186" data-name="Group 186">
        <path id="Path_197" data-name="Path 197" d="M48.8,28.356c-.178-.223-4.677-5.456-10.356-5.456a10.315,10.315,0,0,0-3.341.579l7.349,5.568a4.149,4.149,0,0,0-.334-3.519,17.207,17.207,0,0,1,4.766,3.407,19.661,19.661,0,0,1-2.16,1.848l1.492,1.136A20.654,20.654,0,0,0,48.8,29.514.937.937,0,0,0,48.8,28.356Z" transform="translate(-27.823 -21.497)" fill="gray"/>
        <path id="Path_198" data-name="Path 198" d="M22.2,29.874l-17.26-13.1A.891.891,0,0,0,3.867,18.2l2.606,1.982A19.7,19.7,0,0,0,2.642,23.46a.881.881,0,0,0,0,1.158c.178.223,4.677,5.456,10.378,5.456a11.345,11.345,0,0,0,4.877-1.2l3.207,2.45a.96.96,0,0,0,.535.178.865.865,0,0,0,.713-.356A.908.908,0,0,0,22.2,29.874Zm-9.176-1.6c-3.831,0-7.194-2.962-8.463-4.231a17.571,17.571,0,0,1,3.43-2.695l.869.646a4.605,4.605,0,0,0-.067.779A4.23,4.23,0,0,0,13.02,27a3.975,3.975,0,0,0,1.848-.445L16.25,27.6A8.293,8.293,0,0,1,13.02,28.271Z" transform="translate(-2.425 -16.601)" fill="gray"/>
      </g>
    </g>
  </g>
</svg>
