<svg xmlns="http://www.w3.org/2000/svg" width="20.338" height="17.796" viewBox="0 0 20.338 17.796">
  <path id="Icon_awesome-list-alt" data-name="Icon awesome-list-alt" d="M18.431,20.046H1.907A1.907,1.907,0,0,1,0,18.139V4.157A1.907,1.907,0,0,1,1.907,2.25H18.431a1.907,1.907,0,0,1,1.907,1.907V18.139A1.907,1.907,0,0,1,18.431,20.046ZM5.084,5.746A1.589,1.589,0,1,0,6.673,7.334,1.589,1.589,0,0,0,5.084,5.746Zm0,3.813a1.589,1.589,0,1,0,1.589,1.589A1.589,1.589,0,0,0,5.084,9.559Zm0,3.813a1.589,1.589,0,1,0,1.589,1.589A1.589,1.589,0,0,0,5.084,13.372Zm11.44-5.4V6.7a.477.477,0,0,0-.477-.477H8.1a.477.477,0,0,0-.477.477V7.97a.477.477,0,0,0,.477.477h7.944A.477.477,0,0,0,16.525,7.97Zm0,3.813V10.512a.477.477,0,0,0-.477-.477H8.1a.477.477,0,0,0-.477.477v1.271a.477.477,0,0,0,.477.477h7.944A.477.477,0,0,0,16.525,11.783Zm0,3.813V14.326a.477.477,0,0,0-.477-.477H8.1a.477.477,0,0,0-.477.477V15.6a.477.477,0,0,0,.477.477h7.944A.477.477,0,0,0,16.525,15.6Z" transform="translate(0 -2.25)" fill="#b1b2b4"/>
</svg>
