<svg xmlns="http://www.w3.org/2000/svg" width="19.277" height="19.282" viewBox="0 0 19.277 19.282">
  <path id="Icon_ionic-ios-settings" data-name="Icon ionic-ios-settings" d="M22.186,14.139a2.481,2.481,0,0,1,1.591-2.314,9.833,9.833,0,0,0-1.19-2.866,2.514,2.514,0,0,1-1.009.216A2.475,2.475,0,0,1,19.314,5.69,9.8,9.8,0,0,0,16.453,4.5a2.478,2.478,0,0,1-4.629,0A9.833,9.833,0,0,0,8.958,5.69,2.475,2.475,0,0,1,6.694,9.174a2.432,2.432,0,0,1-1.009-.216A10.05,10.05,0,0,0,4.5,11.829a2.48,2.48,0,0,1,.005,4.629,9.833,9.833,0,0,0,1.19,2.866,2.476,2.476,0,0,1,3.268,3.268,9.89,9.89,0,0,0,2.866,1.19,2.474,2.474,0,0,1,4.618,0,9.833,9.833,0,0,0,2.866-1.19,2.479,2.479,0,0,1,3.268-3.268,9.89,9.89,0,0,0,1.19-2.866A2.492,2.492,0,0,1,22.186,14.139Zm-8,4.011A4.016,4.016,0,1,1,18.2,14.134,4.015,4.015,0,0,1,14.184,18.15Z" transform="translate(-4.5 -4.5)" fill="#b1b2b4"/>
</svg>
