<svg xmlns="http://www.w3.org/2000/svg" width="23.209" height="20.631" viewBox="0 0 23.209 20.631">
  <path id="Icon_awesome-piggy-bank" data-name="Icon awesome-piggy-bank" d="M22.566,9.026H21.377A6.467,6.467,0,0,0,19.87,6.911l.762-3.042H19.342A3.844,3.844,0,0,0,16.4,5.25a6.391,6.391,0,0,0-.927-.093H10.316A6.453,6.453,0,0,0,4,10.315H2.257a.968.968,0,0,1-.947-1.16A.993.993,0,0,1,2.3,8.381h.04a.242.242,0,0,0,.242-.242V7.334a.242.242,0,0,0-.242-.242A2.308,2.308,0,0,0,.021,9.05,2.258,2.258,0,0,0,2.257,11.6H3.869a6.421,6.421,0,0,0,2.579,5.129v3.252a.647.647,0,0,0,.645.645H9.671a.647.647,0,0,0,.645-.645V18.052h5.158v1.934a.647.647,0,0,0,.645.645H18.7a.647.647,0,0,0,.645-.645V16.734A6.448,6.448,0,0,0,20.6,15.473h1.962a.647.647,0,0,0,.645-.645V9.671A.647.647,0,0,0,22.566,9.026ZM17.408,11.6a.645.645,0,1,1,.645-.645A.647.647,0,0,1,17.408,11.6ZM10.316,3.868h5.158c.218,0,.431.016.641.032,0-.012,0-.02,0-.032a3.868,3.868,0,0,0-7.737,0c0,.085.02.165.024.25A7.66,7.66,0,0,1,10.316,3.868Z" transform="translate(-0.002)" fill="#b1b2b4"/>
</svg>
