<svg xmlns="http://www.w3.org/2000/svg" width="18.424" height="18.424" viewBox="0 0 18.424 18.424">
  <path id="Icon_awesome-coins" data-name="Icon awesome-coins" d="M0,14.585v1.537c0,1.27,3.095,2.3,6.909,2.3s6.909-1.033,6.909-2.3V14.585c-1.486,1.047-4.2,1.537-6.909,1.537S1.486,15.632,0,14.585ZM11.515,4.606c3.814,0,6.909-1.033,6.909-2.3S15.329,0,11.515,0,4.606,1.033,4.606,2.3,7.7,4.606,11.515,4.606ZM0,10.81v1.857c0,1.27,3.095,2.3,6.909,2.3s6.909-1.033,6.909-2.3V10.81c-1.486,1.223-4.207,1.857-6.909,1.857S1.486,12.033,0,10.81Zm14.97.4c2.062-.4,3.455-1.141,3.455-1.994V7.676A8.837,8.837,0,0,1,14.97,8.917ZM6.909,5.758C3.095,5.758,0,7.046,0,8.636s3.095,2.879,6.909,2.879,6.909-1.288,6.909-2.879S10.723,5.758,6.909,5.758ZM14.8,7.783c2.159-.389,3.624-1.152,3.624-2.026V4.221a11.715,11.715,0,0,1-5.783,1.5A4.03,4.03,0,0,1,14.8,7.783Z" fill="#b1b2b4"/>
</svg>
