<svg xmlns="http://www.w3.org/2000/svg" width="18.907" height="18.907" viewBox="0 0 18.907 18.907">
  <path id="Icon_awesome-user-circle" data-name="Icon awesome-user-circle" d="M9.453.562a9.453,9.453,0,1,0,9.453,9.453A9.452,9.452,0,0,0,9.453.562Zm0,3.659A3.354,3.354,0,1,1,6.1,7.576,3.354,3.354,0,0,1,9.453,4.222Zm0,13.113a7.3,7.3,0,0,1-5.584-2.6,4.25,4.25,0,0,1,3.755-2.279.933.933,0,0,1,.271.042,5.047,5.047,0,0,0,1.559.263,5.028,5.028,0,0,0,1.559-.263.933.933,0,0,1,.271-.042,4.25,4.25,0,0,1,3.755,2.279A7.3,7.3,0,0,1,9.453,17.335Z" transform="translate(0 -0.563)" fill="#afafaf"/>
</svg>
