<?xml version="1.0" encoding="utf-8"?>
<!-- Generator: Adobe Illustrator 26.3.1, SVG Export Plug-In . SVG Version: 6.00 Build 0)  -->
<svg version="1.1" id="Layer_1" xmlns="http://www.w3.org/2000/svg" xmlns:xlink="http://www.w3.org/1999/xlink" x="0px" y="0px"
	 viewBox="0 0 199.3 118.4" enable-background="new 0 0 199.3 118.4" xml:space="preserve">
<path fill="#FDFEFF" stroke="#D8D8D8" stroke-width="0.25" stroke-miterlimit="10" d="M178,114.3H21.3c-9.3,0-16.9-7.5-16.9-16.9
	v-77c0-9.3,7.5-16.9,16.9-16.9H178c9.3,0,16.9,7.5,16.9,16.9v77C194.9,106.8,187.3,114.3,178,114.3z"/>
<g>
	<g>
		<rect x="75.5" y="25.15" fill="#CADAEE" width="91.3" height="10.3"/>
		<rect x="75.5" y="46.3" fill="#CADAEE" width="63.9" height="6.4"/>
		<rect x="75.5" y="59.9" fill="#CADAEE" width="63.9" height="6.4"/>
		<rect x="75.5" y="73.4" fill="#CADAEE" width="107.7" height="6.4"/>
		<rect x="75.5" y="87" fill="#CADAEE" width="63.4" height="6.4"/>
	</g>
</g>
<g>
	<rect x="21.5" y="24.6" fill="#FFEEBF" width="44" height="49.7"/>
	<path fill="#4386EF" d="M36.6,37.9v9.6c0,0,2.5,7,6.8,7.4s8.8-5.9,8.8-6.8c0-1,0-10.2,0-10.2H36.6z"/>
	<path fill="#FF9882" d="M36.6,43.5c0,0-0.369-2.953,0-5.6c0.3-2.151,1.214-4.1,2.2-4.1c2.2,0,13.7-3.5,16.2-3.5s2.7,9.8-2.9,11.2
		c-5.7,1.4-7.4-2.7-8.6-3.1c-1.141-0.38-1.197,0.958-6.104,0.573C37.144,38.954,36.879,43.529,36.6,43.5z"/>
	<rect x="39.7" y="51" fill="#4287ED" width="8.6" height="10"/>
	<path fill="#18499A" d="M43.6,74.3l-20.8,0.1v-0.1c0-9.3,9.4-16.9,20.8-16.9S64.4,65,64.4,74.2L43.6,74.3z"/>
	<circle fill="#4386EF" cx="36.6" cy="44.4" r="0.9"/>
	<circle fill="none" stroke="#D9D376" stroke-miterlimit="10" cx="41.2" cy="44.4" r="2"/>
	<circle fill="none" stroke="#D9D376" stroke-miterlimit="10" cx="46.9" cy="44.4" r="2"/>
	<path fill="#FFFFFF" d="M44.2,48.1H48c0,2.1-1.7,3.8-3.8,3.8s-3.8-1.7-3.8-3.8H44.2z"/>
	<rect x="43.2" y="44.3" fill="none" stroke="#D9D376" stroke-miterlimit="10" width="1.7" height="0.6"/>
</g>
</svg>
