<?xml version="1.0" encoding="utf-8"?>
<!-- Generator: Adobe Illustrator 26.5.0, SVG Export Plug-In . SVG Version: 6.00 Build 0)  -->
<svg version="1.1" id="Layer_1" xmlns="http://www.w3.org/2000/svg" xmlns:xlink="http://www.w3.org/1999/xlink" x="0px" y="0px"
	 width="35px" height="35px" viewBox="0 0 35 35" enable-background="new 0 0 35 35" xml:space="preserve">
<g>
	<path fill="#FFB820" d="M17.5,34C8.387,34,1,26.613,1,17.5S8.387,1,17.5,1"/>
	<path fill="#FF9800" d="M17.5,1C26.613,1,34,8.387,34,17.5S26.613,34,17.5,34"/>
	<path fill="#FFE0A9" d="M17.5,18.293c-3.591,0-6.503-2.911-6.503-6.503s2.911-6.503,6.503-6.503"/>
	<path fill="#FFCD73" d="M17.5,5.287c3.591,0,6.503,2.911,6.503,6.503s-2.911,6.503-6.503,6.503"/>
	<g>
		<path fill="#B2B2B2" d="M17.5,34V18.293c-6.11,0-11.201,4.354-12.346,10.128C8.177,31.835,12.581,34,17.5,34z"/>
		<path fill="#989898" d="M17.5,18.293V34c4.919,0,9.323-2.165,12.346-5.58C28.701,22.646,23.61,18.293,17.5,18.293z"/>
	</g>
</g>
</svg>
