<svg xmlns="http://www.w3.org/2000/svg" width="15.535" height="13.593" viewBox="0 0 15.535 13.593">
  <path id="Icon_awesome-wallet" data-name="Icon awesome-wallet" d="M13.994,5.163H2.427a.485.485,0,0,1,0-.971H14.079a.485.485,0,0,0,.485-.485A1.456,1.456,0,0,0,13.108,2.25H1.942A1.942,1.942,0,0,0,0,4.192V13.9a1.942,1.942,0,0,0,1.942,1.942H13.994a1.5,1.5,0,0,0,1.541-1.456V6.619A1.5,1.5,0,0,0,13.994,5.163Zm-1.371,6.311a.971.971,0,1,1,.971-.971A.971.971,0,0,1,12.622,11.474Z" transform="translate(0 -2.25)" fill="#b1b2b4"/>
</svg>
