<?xml version="1.0" encoding="utf-8"?>
<!-- Generator: Adobe Illustrator 26.4.1, SVG Export Plug-In . SVG Version: 6.00 Build 0)  -->
<svg version="1.1" id="Layer_1" xmlns="http://www.w3.org/2000/svg" xmlns:xlink="http://www.w3.org/1999/xlink" x="0px" y="0px"
	 width="224px" height="54px" viewBox="0 0 224 54" enable-background="new 0 0 224 54" xml:space="preserve">
<g>
	<g>
		<g>
			<path d="M42.761,22.373c0,0.08,0,9.244,0,9.244c0,1.568-0.844,2.974-2.17,3.738c0,0-8.199,4.703-8.4,4.783V53
				c0.563-0.161,18.65-10.49,18.65-10.49c2.01-1.166,3.256-3.296,3.256-5.627c0,0-0.04-20.579-0.161-21.021L42.761,22.373z"/>
			<path d="M20.614,35.395c-1.326-0.764-2.17-2.211-2.17-3.738c0,0,0-9.124,0-9.204L7.27,15.982
				c-0.08,0.442-0.161,20.981-0.161,20.981c0,2.331,1.246,4.461,3.256,5.627c0,0,17.886,10.249,18.368,10.41V40.098
				C28.613,39.977,20.614,35.395,20.614,35.395z"/>
			<path d="M28.452,14.334c1.326-0.764,2.974-0.764,4.341,0c0,0,8.24,4.783,8.4,4.944l11.134-6.431
				C51.885,12.405,33.878,1.874,33.878,1.874c-2.01-1.166-4.502-1.166-6.511,0c0,0-18.047,10.531-18.489,11.013l11.134,6.431
				C20.172,19.157,28.452,14.334,28.452,14.334z"/>
		</g>
		<g>
			<g>
				<path id="SVGID_1_" fill="#DCAF28" d="M23.106,25.146v4.743c0,1.246,0.683,2.412,1.728,3.014l4.1,2.371
					c1.085,0.643,2.412,0.643,3.497,0l4.1-2.371c1.085-0.643,1.728-1.769,1.728-3.014v-4.743c0-1.246-0.683-2.412-1.728-3.014
					l-4.06-2.412c-1.085-0.643-2.412-0.643-3.497,0l-4.1,2.371C23.79,22.734,23.106,23.9,23.106,25.146z"/>
			</g>
			<g>
				<g>
					<g>
						<g>
							<defs>
								<path id="SVGID_00000120550060935609175990000001098017466606854277_" d="M23.106,25.146v4.743
									c0,1.246,0.683,2.412,1.728,3.014l4.1,2.371c1.085,0.643,2.412,0.643,3.497,0l4.1-2.371
									c1.085-0.643,1.728-1.769,1.728-3.014v-4.743c0-1.246-0.683-2.412-1.728-3.014l-4.06-2.412
									c-1.085-0.643-2.412-0.643-3.497,0l-4.1,2.371C23.79,22.734,23.106,23.9,23.106,25.146z"/>
							</defs>
							<clipPath id="SVGID_00000119809772958005564560000000991212399754598811_">
								<use xlink:href="#SVGID_00000120550060935609175990000001098017466606854277_"  overflow="visible"/>
							</clipPath>
							<polygon clip-path="url(#SVGID_00000119809772958005564560000000991212399754598811_)" fill="#D19F22" points="
								38.581,31.939 38.5,22.694 30.864,27.517 30.824,36.601 							"/>
						</g>
					</g>
				</g>
			</g>
			<g>
				<g>
					<g>
						<g>
							<defs>
								<path id="SVGID_00000006691153771396444570000013065516727867334818_" d="M23.106,25.146v4.743
									c0,1.246,0.683,2.412,1.728,3.014l4.1,2.371c1.085,0.643,2.412,0.643,3.497,0l4.1-2.371
									c1.085-0.643,1.728-1.769,1.728-3.014v-4.743c0-1.246-0.683-2.412-1.728-3.014l-4.06-2.412
									c-1.085-0.643-2.412-0.643-3.497,0l-4.1,2.371C23.79,22.734,23.106,23.9,23.106,25.146z"/>
							</defs>
							<clipPath id="SVGID_00000005974554589833478420000007405123967424092569_">
								<use xlink:href="#SVGID_00000006691153771396444570000013065516727867334818_"  overflow="visible"/>
							</clipPath>
							<polygon clip-path="url(#SVGID_00000005974554589833478420000007405123967424092569_)" fill="#EFC726" points="
								30.864,36.722 30.864,27.517 21.338,22.212 21.981,37.365 							"/>
						</g>
					</g>
				</g>
			</g>
		</g>
	</g>
	<g>
		<g>
			<g enable-background="new    ">
				<path d="M64.736,35.567l12.28-16.264H65.263v-3.522h16.034v3.786L69.082,35.831h12.347v3.522H64.736V35.567z"/>
				<path d="M87.849,38.251c-1.866-1.087-3.331-2.573-4.396-4.462c-1.065-1.887-1.597-3.961-1.597-6.222
					c0-2.26,0.532-4.329,1.597-6.206c1.064-1.877,2.529-3.363,4.396-4.461c1.865-1.098,3.939-1.646,6.223-1.646
					c2.282,0,4.351,0.549,6.206,1.646c1.854,1.098,3.32,2.584,4.396,4.461c1.075,1.877,1.613,3.946,1.613,6.206
					c0,2.261-0.533,4.335-1.597,6.222c-1.065,1.889-2.53,3.375-4.395,4.462c-1.866,1.086-3.94,1.629-6.223,1.629
					C91.789,39.88,89.714,39.337,87.849,38.251z M98.352,35.238c1.295-0.746,2.315-1.783,3.062-3.111
					c0.746-1.328,1.12-2.849,1.12-4.56c0-1.712-0.374-3.231-1.12-4.56c-0.747-1.328-1.767-2.365-3.062-3.111
					c-1.295-0.746-2.722-1.119-4.28-1.119c-1.559,0-2.985,0.373-4.28,1.119c-1.295,0.746-2.321,1.783-3.079,3.111
					c-0.757,1.328-1.136,2.848-1.136,4.56c0,1.711,0.379,3.232,1.136,4.56c0.757,1.328,1.783,2.365,3.079,3.111
					c1.295,0.746,2.721,1.119,4.28,1.119C95.63,36.357,97.056,35.984,98.352,35.238z"/>
				<path d="M108.525,15.781h7.54c2.437,0,4.565,0.493,6.387,1.481c1.822,0.987,3.222,2.376,4.198,4.165s1.465,3.835,1.465,6.14
					c0,2.304-0.488,4.351-1.465,6.14s-2.376,3.177-4.198,4.165c-1.821,0.987-3.95,1.481-6.387,1.481h-7.54V15.781z M115.998,35.831
					c2.635,0,4.692-0.729,6.174-2.189s2.223-3.484,2.223-6.075c0-2.567-0.741-4.587-2.223-6.058s-3.539-2.206-6.174-2.206h-3.786
					v16.528H115.998z"/>
				<path d="M130.354,15.781h14.321v3.522h-10.634v6.519h9.581v3.49h-9.581v6.52h10.634v3.522h-14.321V15.781z"/>
				<path d="M153.927,15.781h4.214l8.856,23.573h-4.082l-2.107-6.025h-9.516l-2.14,6.025h-4.083L153.927,15.781z M159.557,29.904
					l-2.503-7.012l-0.922-2.732h-0.197l-0.922,2.732l-2.502,7.012H159.557z"/>
				<path d="M168.215,15.781h3.688v11.193h0.198l9.548-11.193h4.576v0.197l-8.626,9.943l9.383,13.235v0.197h-4.51l-7.375-10.568
					l-3.194,3.688v6.881h-3.688V15.781z"/>
			</g>
		</g>
		<polygon fill="#F0B80C" points="191.915,15.774 200.585,27.744 191.915,39.358 197.125,39.358 205.915,27.744 197.125,15.774 		
			"/>
		<polygon points="216.891,15.774 208.221,27.744 216.891,39.358 211.681,39.358 205.915,31.761 205.915,23.728 211.681,15.774 		
			"/>
		<g>
			<g>
				<path id="XMLID_00000013180254159051989420000006177227242997694133_" fill="#DCAF28" d="M89.172,25.572v4.502
					c0,0.362,0.201,0.683,0.482,0.884l3.899,2.251c0.322,0.161,0.683,0.161,1.005,0l3.899-2.251
					c0.322-0.161,0.482-0.523,0.482-0.884v-4.502c0-0.362-0.201-0.683-0.482-0.884l-3.899-2.251c-0.322-0.161-0.683-0.161-1.005,0
					l-3.899,2.251C89.373,24.889,89.172,25.21,89.172,25.572z"/>
			</g>
			<g>
				<g>
					<g>
						<g>
							<defs>
								<path id="SVGID_00000067221195570604349200000013271202834284394936_" d="M89.172,25.572v4.502
									c0,0.362,0.201,0.683,0.482,0.884l3.899,2.251c0.322,0.161,0.683,0.161,1.005,0l3.899-2.251
									c0.322-0.161,0.482-0.523,0.482-0.884v-4.502c0-0.362-0.201-0.683-0.482-0.884l-3.899-2.251
									c-0.322-0.161-0.683-0.161-1.005,0l-3.899,2.251C89.373,24.889,89.172,25.21,89.172,25.572z"/>
							</defs>
							<clipPath id="SVGID_00000019639150384543822790000003897399211259309958_">
								<use xlink:href="#SVGID_00000067221195570604349200000013271202834284394936_"  overflow="visible"/>
							</clipPath>
							<polygon clip-path="url(#SVGID_00000019639150384543822790000003897399211259309958_)" fill="#D19F22" points="
								99.139,30.637 99.099,24.688 94.196,27.783 94.156,33.651 							"/>
						</g>
					</g>
				</g>
			</g>
			<g>
				<g>
					<g>
						<g>
							<defs>
								<path id="SVGID_00000178910587495879798370000001115030226113808257_" d="M89.172,25.572v4.502
									c0,0.362,0.201,0.683,0.482,0.884l3.899,2.251c0.322,0.161,0.683,0.161,1.005,0l3.899-2.251
									c0.322-0.161,0.482-0.523,0.482-0.884v-4.502c0-0.362-0.201-0.683-0.482-0.884l-3.899-2.251
									c-0.322-0.161-0.683-0.161-1.005,0l-3.899,2.251C89.373,24.889,89.172,25.21,89.172,25.572z"/>
							</defs>
							<clipPath id="SVGID_00000007391519783343091610000011226414209902314132_">
								<use xlink:href="#SVGID_00000178910587495879798370000001115030226113808257_"  overflow="visible"/>
							</clipPath>
							<polygon clip-path="url(#SVGID_00000007391519783343091610000011226414209902314132_)" fill="#EFC726" points="
								94.196,33.731 94.196,27.783 88.046,24.407 88.488,34.133 							"/>
						</g>
					</g>
				</g>
			</g>
		</g>
	</g>
</g>
</svg>
